<?xml version="1.0" encoding="utf-8"?>
<!-- Generator: Adobe Illustrator 25.2.3, SVG Export Plug-In . SVG Version: 6.00 Build 0)  -->
<svg version="1.1" id="Layer_1" xmlns="http://www.w3.org/2000/svg" xmlns:xlink="http://www.w3.org/1999/xlink" x="0px" y="0px"
	 viewBox="0 0 31 31" style="enable-background:new 0 0 31 31;" xml:space="preserve">
<style type="text/css">
	.st0{fill:#333333;}
	.st1{fill:#EEEEEE;}
</style>
<g>
	<path class="st0" d="M23.6,12c-0.3-0.2-0.6-0.1-0.9,0l-1.8,1v-0.8c0-1.3-1.1-2.4-2.4-2.4h-9C8.1,9.9,7,10.9,7,12.3v6.5
		c0,1.3,1.1,2.4,2.4,2.4h9c1.3,0,2.4-1.1,2.4-2.4v-0.8l1.8,1c0.3,0.2,0.7,0.2,0.9,0c0.3-0.2,0.4-0.5,0.4-0.8v-5.4
		C24,12.5,23.8,12.2,23.6,12z"/>
	<path class="st1" d="M15.6,15.1c0.4,0.2,0.4,0.5,0,0.7l-0.4,0.2c-0.4,0.2-0.9,0.5-1.3,0.7l-0.4,0.2c-0.4,0.2-0.6,0-0.6-0.4v-0.5
		c0-0.4,0-1.1,0-1.5v-0.5c0-0.4,0.3-0.6,0.6-0.4l0.4,0.2c0.4,0.2,0.9,0.5,1.3,0.7L15.6,15.1z"/>
</g>
</svg>
