<?xml version="1.0" encoding="utf-8"?>
<!-- Generator: Adobe Illustrator 25.2.3, SVG Export Plug-In . SVG Version: 6.00 Build 0)  -->
<svg version="1.1" id="Layer_1" xmlns="http://www.w3.org/2000/svg" xmlns:xlink="http://www.w3.org/1999/xlink" x="0px" y="0px"
	 viewBox="0 0 31 31" style="enable-background:new 0 0 31 31;" xml:space="preserve">
<style type="text/css">
	.st0{fill:#333333;}
	.st1{fill:#EEEEEE;}
	.st2{fill:#1254FF;}
</style>
<g>
	<path class="st0" d="M-59.8,31.7c-0.3-0.2-0.6-0.1-0.9,0l-1.8,1V32c0-1.3-1.1-2.4-2.4-2.4h-9c-1.3,0-2.4,1.1-2.4,2.4v6.5
		c0,1.3,1.1,2.4,2.4,2.4h9c1.3,0,2.4-1.1,2.4-2.4v-0.8l1.8,1c0.3,0.2,0.7,0.2,0.9,0c0.3-0.2,0.4-0.5,0.4-0.8v-5.4
		C-59.4,32.2-59.5,31.9-59.8,31.7z"/>
	<path class="st1" d="M-67.8,34.8c0.4,0.2,0.4,0.5,0,0.7l-0.4,0.2c-0.4,0.2-0.9,0.5-1.3,0.7l-0.4,0.2c-0.4,0.2-0.6,0-0.6-0.4v-0.5
		c0-0.4,0-1.1,0-1.5V34c0-0.4,0.3-0.6,0.6-0.4l0.4,0.2c0.4,0.2,0.9,0.5,1.3,0.7L-67.8,34.8z"/>
</g>
<g>
	<path class="st2" d="M18.4,9.9h-9C8.1,9.9,7,10.9,7,12.3v6.5c0,1.1,0.7,1.9,1.6,2.3l0.8-0.8h0c-0.8,0-1.5-0.7-1.5-1.5v-6.5
		c0-0.8,0.7-1.5,1.5-1.5h9c0.1,0,0.2,0,0.3,0l0.2-0.2l0.6-0.6C19.2,10,18.8,9.9,18.4,9.9z"/>
	<path class="st2" d="M23.6,12c-0.3-0.2-0.6-0.1-0.9,0l-1.8,1v-0.8c0-0.2,0-0.4-0.1-0.6l-0.8,0.8v2.2l3.1-1.8l0,5.2l-3.1-1.8v2.5
		c0,0.8-0.7,1.5-1.5,1.5h-6.2l-0.9,0.9h7.2c1.3,0,2.4-1.1,2.4-2.4v-0.8l1.8,1c0.3,0.2,0.7,0.2,0.9,0c0.3-0.2,0.4-0.5,0.4-0.8v-5.4
		C24,12.5,23.8,12.2,23.6,12z"/>
	<polygon class="st2" points="19.5,10.1 18.9,10.7 19.5,10.1 	"/>
	<g>
		<path class="st2" d="M8,23.5c-0.1,0-0.2,0-0.3-0.1c-0.2-0.2-0.2-0.5,0-0.7l15-15c0.2-0.2,0.5-0.2,0.7,0c0.2,0.2,0.2,0.5,0,0.7
			l-15,15C8.2,23.5,8.1,23.5,8,23.5z"/>
	</g>
</g>
</svg>
