<?xml version="1.0" encoding="utf-8"?>
<!-- Generator: Adobe Illustrator 25.2.3, SVG Export Plug-In . SVG Version: 6.00 Build 0)  -->
<svg version="1.1" id="Layer_1" xmlns="http://www.w3.org/2000/svg" xmlns:xlink="http://www.w3.org/1999/xlink" x="0px" y="0px"
	 viewBox="0 0 31 31" style="enable-background:new 0 0 31 31;" xml:space="preserve">
<style type="text/css">
	.st0{fill:#333333;}
</style>
<g>
	<path class="st0" d="M8.6,21l10.9-10.9c-0.3-0.2-0.7-0.3-1.1-0.3h-9C8.2,9.8,7,11,7,12.2v6.5C7,19.8,7.7,20.6,8.6,21z"/>
	<path class="st0" d="M23.5,12c-0.3-0.2-0.6-0.1-0.9,0l-1.8,1v-0.7c0-0.2,0-0.4-0.1-0.6l-9.5,9.5h7.2c1.3,0,2.4-1.1,2.4-2.4V18
		l1.8,1c0.3,0.2,0.7,0.2,0.9,0c0.3-0.2,0.4-0.5,0.4-0.8v-5.4C24,12.5,23.8,12.2,23.5,12z"/>
</g>
<g>
	<g>
		<path class="st0" d="M7.9,23.5c-0.1,0-0.2,0-0.3-0.1c-0.2-0.2-0.2-0.5,0-0.7l15-15c0.2-0.2,0.5-0.2,0.7,0s0.2,0.5,0,0.7l-15,15
			C8.1,23.5,8,23.5,7.9,23.5z"/>
	</g>
</g>
</svg>
