<?xml version="1.0" encoding="utf-8"?>
<!-- Generator: Adobe Illustrator 25.2.3, SVG Export Plug-In . SVG Version: 6.00 Build 0)  -->
<svg version="1.1" id="Layer_1" xmlns="http://www.w3.org/2000/svg" xmlns:xlink="http://www.w3.org/1999/xlink" x="0px" y="0px"
	 viewBox="0 0 24 24" style="enable-background:new 0 0 24 24;" xml:space="preserve">
<style type="text/css">
	.st0{display:none;}
	.st1{display:inline;}
	.st2{fill:#4E5459;}
	.st3{display:inline;fill:#4E5459;}
	.st4{fill:#1254FF;}
</style>
<g class="st0">
	<g class="st1">
		<path class="st2" d="M15.8,3.9L15.8,3.9L15.8,3.9c-0.1-0.2-0.1-0.4-0.2-0.6l0,0c-0.2-0.4-0.4-0.7-0.7-1l0,0
			c-0.1-0.1-0.3-0.3-0.4-0.4c0,0,0,0-0.1,0c-0.3-0.2-0.7-0.4-1-0.6h-0.1c-0.2-0.1-0.4-0.1-0.5-0.1h-0.1C12.4,1,12.2,1,12,1
			s-0.4,0-0.6,0.1h-0.1c-0.2,0-0.4,0.1-0.5,0.1h-0.1c-0.4,0.1-0.7,0.3-1,0.6c0,0,0,0-0.1,0C9.4,2,9.3,2.1,9.2,2.2l0,0
			c-0.3,0.3-0.5,0.6-0.7,1l0,0C8.3,3.5,8.3,3.7,8.2,3.9l0,0l0,0c-0.1,0.3-0.1,0.7-0.1,1v3.9v3.3c0,2.2,1.8,3.9,3.9,3.9
			c2.2,0,3.9-1.8,3.9-3.9V8.9v-4C15.9,4.6,15.9,4.2,15.8,3.9z"/>
	</g>
	<path class="st3" d="M18.5,12.2c0-0.3-0.2-0.5-0.5-0.5s-0.5,0.2-0.5,0.5c0,3-2.4,5.5-5.5,5.5s-5.5-2.4-5.5-5.5
		c0-0.3-0.2-0.5-0.5-0.5s-0.5,0.2-0.5,0.5c0,3.1,2.2,5.7,5.1,6.3v3.2H9.1c-0.3,0-0.5,0.2-0.5,0.5v0.4c0,0.3,0.2,0.5,0.5,0.5h1.6h2.7
		H15c0.3,0,0.5-0.2,0.5-0.5v-0.4c0-0.3-0.2-0.5-0.5-0.5h-1.6v-3.2C16.3,17.9,18.5,15.3,18.5,12.2z"/>
</g>
<path class="st4" d="M12,5.1c-4.2,0-7.5,2.6-7.5,5.8c0,2.1,1.5,4,3.6,5l-0.8,2.6c-0.1,0.6,0,0.6,0.4,0.4l3.1-2.2
	c0.4,0.1,0.8,0.1,1.2,0.1c4.2,0,7.5-2.6,7.5-5.8C19.5,7.7,16.2,5.1,12,5.1z M9.3,11.9c-0.5,0-0.8-0.3-0.8-0.8s0.3-0.8,0.8-0.8
	c0.5,0,0.8,0.4,0.8,0.8C10.1,11.5,9.8,11.9,9.3,11.9z M12,11.9c-0.5,0-0.8-0.3-0.8-0.8s0.3-0.8,0.8-0.8s0.8,0.4,0.8,0.8
	C12.8,11.5,12.5,11.9,12,11.9z M14.7,11.9c-0.5,0-0.8-0.3-0.8-0.8s0.3-0.8,0.8-0.8c0.4,0,0.8,0.4,0.8,0.8
	C15.5,11.5,15.2,11.9,14.7,11.9z"/>
</svg>
