<?xml version="1.0" encoding="utf-8"?>
<!-- Generator: Adobe Illustrator 25.2.3, SVG Export Plug-In . SVG Version: 6.00 Build 0)  -->
<svg version="1.1" id="Layer_1" xmlns="http://www.w3.org/2000/svg" xmlns:xlink="http://www.w3.org/1999/xlink" x="0px" y="0px"
	 viewBox="0 0 45 45" style="enable-background:new 0 0 45 45;" xml:space="preserve">
<style type="text/css">
	.st0{fill:#1254FF;}
</style>
<path id="합치기_1" class="st0" d="M15.1,33.7c-0.5-0.3-0.7-1-0.5-1.5l2.1-6.5c0.1-0.2,0-0.4-0.2-0.5l-5.5-4
	c-0.6-0.4-0.7-1.3-0.3-1.9c0.3-0.4,0.7-0.6,1.1-0.6h6.9c0.2,0,0.4-0.1,0.4-0.3l2.1-6.5c0.2-0.7,1-1.1,1.7-0.9
	c0.4,0.1,0.7,0.5,0.9,0.9l2.1,6.5c0.1,0.2,0.2,0.3,0.4,0.3h6.9c0.7,0,1.4,0.6,1.4,1.3c0,0.4-0.2,0.8-0.6,1.1l-5.5,4
	c-0.2,0.1-0.2,0.3-0.2,0.5l2.1,6.5c0.2,0.6,0,1.2-0.5,1.5c-0.5,0.4-1.1,0.4-1.6,0l-5.5-4c-0.2-0.1-0.4-0.1-0.5,0l-5.5,4
	C16.2,34.1,15.6,34.1,15.1,33.7L15.1,33.7z"/>
</svg>
