<svg xmlns="http://www.w3.org/2000/svg" width="24.045" height="23" viewBox="0 0 24.045 23">
  <g id="그룹_19" data-name="그룹 19" transform="translate(-1322 -879)">
    <path id="패스_13" data-name="패스 13" d="M332.384,208.942a1.352,1.352,0,0,1-.795-.262l-5.546-4.03a.432.432,0,0,0-.506,0l-5.546,4.03a1.351,1.351,0,0,1-2.079-1.51l2.119-6.521a.429.429,0,0,0-.156-.482l-5.547-4.03a1.35,1.35,0,0,1,.794-2.443h6.857a.43.43,0,0,0,.409-.3l2.119-6.52a1.351,1.351,0,0,1,2.569,0l2.119,6.52a.428.428,0,0,0,.409.3h6.856a1.35,1.35,0,0,1,.794,2.443l-5.547,4.03a.429.429,0,0,0-.156.482l2.119,6.521a1.331,1.331,0,0,1-.49,1.51A1.351,1.351,0,0,1,332.384,208.942Zm-6.594-5.3a1.345,1.345,0,0,1,.794.259l5.546,4.029a.431.431,0,0,0,.663-.482l-2.119-6.521a1.347,1.347,0,0,1,.49-1.51l5.547-4.029a.431.431,0,0,0-.254-.779H329.6a1.349,1.349,0,0,1-1.285-.934L326.2,187.16a.431.431,0,0,0-.819,0l-2.119,6.521a1.347,1.347,0,0,1-1.284.934H315.12a.431.431,0,0,0-.253.779l5.547,4.029a1.347,1.347,0,0,1,.49,1.51l-2.119,6.521a.431.431,0,0,0,.663.482L325,203.906A1.347,1.347,0,0,1,325.789,203.647Z" transform="translate(1008.233 693.057)" fill="#1254ff"/>
  </g>
</svg>
