<?xml version="1.0" encoding="utf-8"?>
<!-- Generator: Adobe Illustrator 25.2.3, SVG Export Plug-In . SVG Version: 6.00 Build 0)  -->
<svg version="1.1" id="Layer_1" xmlns="http://www.w3.org/2000/svg" xmlns:xlink="http://www.w3.org/1999/xlink" x="0px" y="0px"
	 viewBox="0 0 31 31" style="enable-background:new 0 0 31 31;" xml:space="preserve">
<style type="text/css">
	.st0{fill:#333333;}
</style>
<g>
	<g>
		<path class="st0" d="M9,13H8V9.5C8,8.7,8.7,8,9.5,8H13v1H9.5C9.2,9,9,9.2,9,9.5V13z"/>
	</g>
	<g>
		<path class="st0" d="M22,13h1V9.5C23,8.7,22.3,8,21.5,8H18v1h3.5C21.8,9,22,9.2,22,9.5V13z"/>
	</g>
	<g>
		<path class="st0" d="M9,18H8v3.5C8,22.3,8.7,23,9.5,23H13v-1H9.5C9.2,22,9,21.8,9,21.5V18z"/>
	</g>
	<g>
		<path class="st0" d="M22,18h1v3.5c0,0.8-0.7,1.5-1.5,1.5H18v-1h3.5c0.3,0,0.5-0.2,0.5-0.5V18z"/>
	</g>
</g>
</svg>
