<svg xmlns="http://www.w3.org/2000/svg" width="31" height="31" viewBox="0 0 31 31">
  <g id="그룹_14" data-name="그룹 14" transform="translate(-467.693 -272.646)">
    <g id="그룹_10" data-name="그룹 10">
      <path id="패스_9" data-name="패스 9" d="M483.193,303.646a15.5,15.5,0,1,1,15.5-15.5A15.518,15.518,0,0,1,483.193,303.646Zm0-30a14.5,14.5,0,1,0,14.5,14.5A14.516,14.516,0,0,0,483.193,273.646Z" fill="#333"/>
    </g>
    <path id="패스_10" data-name="패스 10" d="M483.058,287.829v2.311h3.735a2.8,2.8,0,0,1-.622,1.162,3.387,3.387,0,0,1-1.223.878,4.09,4.09,0,0,1-1.665.33A3.884,3.884,0,0,1,481.3,292a3.634,3.634,0,0,1-1.387-1.417,4.127,4.127,0,0,1-.5-2.033,4.045,4.045,0,0,1,.5-2.018,3.615,3.615,0,0,1,1.387-1.394,3.939,3.939,0,0,1,1.98-.5,4.027,4.027,0,0,1,1.913.442,3.01,3.01,0,0,1,1.237,1.148h3a5.4,5.4,0,0,0-1.222-2.085,6.135,6.135,0,0,0-2.145-1.47,7.079,7.079,0,0,0-2.347-.518c0-.008,0-.014,0-.022v-2a.5.5,0,0,0-1,0v2a.229.229,0,0,0,.006.028,6.64,6.64,0,0,0-2.858.8,6.058,6.058,0,0,0-2.34,2.295,6.816,6.816,0,0,0,0,6.585,6.065,6.065,0,0,0,2.34,2.295,6.64,6.64,0,0,0,2.858.8.3.3,0,0,0-.006.029v2a.5.5,0,0,0,1,0v-2c0-.01-.005-.019-.006-.029a6.513,6.513,0,0,0,2.814-.8,6.1,6.1,0,0,0,2.325-2.295,6.445,6.445,0,0,0,.847-3.293v-.72Z" fill="#333"/>
  </g>
</svg>
