<?xml version="1.0" encoding="utf-8"?>
<!-- Generator: Adobe Illustrator 25.2.3, SVG Export Plug-In . SVG Version: 6.00 Build 0)  -->
<svg version="1.1" id="Layer_1" xmlns="http://www.w3.org/2000/svg" xmlns:xlink="http://www.w3.org/1999/xlink" x="0px" y="0px"
	 viewBox="0 0 45 45" style="enable-background:new 0 0 45 45;" xml:space="preserve">
<style type="text/css">
	.st0{fill:#1254FF;}
</style>
<path id="패스_14_1_" class="st0" d="M34.1,22.1c0.4-0.5,0.6-1.1,0.6-1.8c0-1.3-0.8-2.4-1.8-2.4h-5.8c-0.4,0-0.6-0.1-0.6-0.2
	c0-0.1,0-0.1,0-0.2l1.4-4.5c0.3-1.4-0.4-2.9-1.7-3.5c-1.4-0.3-2.8,0.5-3.2,1.9l0,0.1c-0.5,3.5-3.5,6.1-4.6,6.9
	c-0.2-0.8-1-1.4-1.8-1.4h-4.3c-1.1,0.1-2,1-1.9,2.2v11.6c-0.1,1.1,0.8,2.1,1.9,2.2h4.3c0.8,0,1.5-0.5,1.7-1.2
	c1.5,0.7,3.1,1.2,4.7,1.5c0.6,0.1,1.2,0.2,1.8,0.2H33c1,0,1.8-1.1,1.8-2.4c0-0.7-0.2-1.3-0.6-1.8c0.8-1.1,0.8-2.5,0-3.6
	C34.9,24.6,34.9,23.1,34.1,22.1L34.1,22.1z M28.9,22.7H33c0.4,0,0.7,0.6,0.7,1.2s-0.3,1.2-0.7,1.2h-4.1c-0.3,0-0.6,0.4-0.5,0.7
	c0,0.3,0.2,0.5,0.5,0.5H33c0.4,0,0.7,0.6,0.7,1.2s-0.3,1.2-0.7,1.2h-4.1c-0.3,0-0.6,0.3-0.5,0.7c0,0.3,0.2,0.5,0.5,0.5H33
	c0.4,0,0.7,0.6,0.7,1.2s-0.3,1.2-0.7,1.2h-8.2c-0.6,0-1.1-0.1-1.6-0.2c-1.6-0.3-3.2-0.8-4.6-1.6l0-5.8v-4.9c0.4-0.3,4.8-3.2,5.5-8
	c0.1-0.3,0.7-1.5,1.9-1.2c0.8,0.4,1.2,1.2,1,2l-1.4,4.4c-0.1,0.4-0.1,0.9,0.2,1.3c0.3,0.5,0.9,0.7,1.5,0.7H33c0.4,0,0.7,0.6,0.7,1.2
	s-0.3,1.2-0.7,1.2h-4.1c-0.3,0-0.6,0.4-0.5,0.7C28.4,22.4,28.6,22.6,28.9,22.7L28.9,22.7z"/>
</svg>
