<svg xmlns="http://www.w3.org/2000/svg" width="153" height="170" viewBox="0 0 153 170">
  <g id="그룹_4" data-name="그룹 4" transform="translate(-708 -411.989)">
    <path id="패스_4" data-name="패스 4" d="M1011.582,444.529H965.958a15.372,15.372,0,0,0-4.212-6.494l3.568-4.059,8.919-10.145a4.063,4.063,0,1,0-.366-.366l-10.147,8.917-4.378,3.846a15.011,15.011,0,0,0-9.864-2.125l-10.661-9.367-9.263-8.137a3.922,3.922,0,1,0-.523.414l8.192,9.316,7.892,8.978a15.4,15.4,0,0,0-8.353,9.22H890.956a16.185,16.185,0,0,0-16.188,16.18v85.176a16.185,16.185,0,0,0,16.188,16.18h1.324l-5.153,11.668a4.192,4.192,0,0,0,7.34,3.993l10.281-15.661h93.043l10.279,15.661a4.193,4.193,0,0,0,7.342-3.993l-5.153-11.668h1.324a16.183,16.183,0,0,0,16.186-16.18V460.708A16.183,16.183,0,0,0,1011.582,444.529Z" transform="translate(-166.768 2.372)"/>
    <g id="그룹_28" data-name="그룹 28" transform="translate(3)">
      <path id="패스_5" data-name="패스 5" d="M916.158,467.942l-12.89,7.442V445.616l12.89,7.442,12.89,7.442Z" transform="translate(-90.635 49.373)" fill="#fff"/>
      <text id="PLAY" transform="translate(726 520.988)" fill="#ccc" font-size="32" font-family="NotoSansSC-Medium, Noto Sans SC" font-weight="500"><tspan x="0" y="0">PLAY</tspan></text>
    </g>
  </g>
</svg>
