<?xml version="1.0" encoding="utf-8"?>
<!-- Generator: Adobe Illustrator 25.2.3, SVG Export Plug-In . SVG Version: 6.00 Build 0)  -->
<svg version="1.1" id="Layer_1" xmlns="http://www.w3.org/2000/svg" xmlns:xlink="http://www.w3.org/1999/xlink" x="0px" y="0px"
	 viewBox="0 0 24 24" style="enable-background:new 0 0 24 24;" xml:space="preserve">
<style type="text/css">
	.st0{fill:#D7000F;}
	.st1{display:none;}
	.st2{display:inline;}
	.st3{fill:#4E5459;}
	.st4{display:inline;fill:#4E5459;}
	.st5{fill:none;stroke:#FFFFFF;stroke-width:0.5;stroke-miterlimit:10;}
	.st6{fill:#FFFFFF;}
</style>
<path class="st0" d="M22.3,17.5H1.8c-1,0-1.8-0.8-1.8-1.8V8.3c0-1,0.8-1.8,1.8-1.8h20.4c1,0,1.8,0.8,1.8,1.8v7.3
	C24.1,16.7,23.3,17.5,22.3,17.5z"/>
<text transform="matrix(1 0 0 1 -20.7649 12.7875)" style="font-family:'GmarketSansTTFMedium'; font-size:7.2683px;">LIVE</text>
<text transform="matrix(1 0 0 1 28.2461 18.8506)" class="st6" style="font-family:'GmarketSansTTFBold'; font-size:7.2683px;">LIVE</text>
<g class="st1">
	<g class="st2">
		<path class="st3" d="M15.8,3.9L15.8,3.9L15.8,3.9c-0.1-0.2-0.1-0.4-0.2-0.6l0,0c-0.2-0.4-0.4-0.7-0.7-1l0,0
			c-0.1-0.1-0.3-0.3-0.4-0.4c0,0,0,0-0.1,0c-0.3-0.2-0.7-0.4-1-0.6h-0.1c-0.2-0.1-0.4-0.1-0.5-0.1h-0.1C12.4,1,12.2,1,12,1
			s-0.4,0-0.6,0.1h-0.1c-0.2,0-0.4,0.1-0.5,0.1h-0.1c-0.4,0.1-0.7,0.3-1,0.6c0,0,0,0-0.1,0C9.4,2,9.3,2.1,9.2,2.2l0,0
			c-0.3,0.3-0.5,0.6-0.7,1l0,0C8.3,3.5,8.3,3.7,8.2,3.9l0,0l0,0c-0.1,0.3-0.1,0.7-0.1,1v3.9v3.3c0,2.2,1.8,3.9,3.9,3.9
			c2.2,0,3.9-1.8,3.9-3.9V8.9v-4C15.9,4.6,15.9,4.2,15.8,3.9z"/>
	</g>
	<path class="st4" d="M18.5,12.2c0-0.3-0.2-0.5-0.5-0.5s-0.5,0.2-0.5,0.5c0,3-2.4,5.5-5.5,5.5s-5.5-2.4-5.5-5.5
		c0-0.3-0.2-0.5-0.5-0.5s-0.5,0.2-0.5,0.5c0,3.1,2.2,5.7,5.1,6.3v3.2H9.1c-0.3,0-0.5,0.2-0.5,0.5v0.4c0,0.3,0.2,0.5,0.5,0.5h1.6h2.7
		H15c0.3,0,0.5-0.2,0.5-0.5v-0.4c0-0.3-0.2-0.5-0.5-0.5h-1.6v-3.2C16.3,17.9,18.5,15.3,18.5,12.2z"/>
</g>
<circle class="st5" cx="31.9" cy="3.9" r="1.9"/>
<circle class="st6" cx="43.2" cy="4.3" r="0.5"/>
<g>
	<g>
		<path class="st6" d="M5.1,9.2v3.7h2.3v0.9H4.1V9.2H5.1z"/>
		<path class="st6" d="M9,9.2v4.5H8V9.2H9z"/>
		<path class="st6" d="M14.2,9.2l-1.8,4.5h-1.1L9.5,9.2h1.2l1.3,3.3l1.3-3.3H14.2z"/>
		<path class="st6" d="M14.8,9.2h3.4v0.9h-2.4V11H18v0.9h-2.2v0.9h2.4v0.9h-3.4L14.8,9.2L14.8,9.2z"/>
	</g>
	<circle class="st6" cx="20.3" cy="8.8" r="0.8"/>
</g>
<path class="st5" d="M42.8,2.4c1,0,1.9,0.8,1.9,1.9s-0.8,1.9-1.9,1.9"/>
<path class="st5" d="M42.8,1.4c1.6,0,2.9,1.3,2.9,2.9s-1.3,2.9-2.9,2.9"/>
</svg>
