<?xml version="1.0" encoding="utf-8"?>
<!-- Generator: Adobe Illustrator 25.2.3, SVG Export Plug-In . SVG Version: 6.00 Build 0)  -->
<svg version="1.1" id="Layer_1" xmlns="http://www.w3.org/2000/svg" xmlns:xlink="http://www.w3.org/1999/xlink" x="0px" y="0px"
	 viewBox="0 0 24 24" style="enable-background:new 0 0 24 24;" xml:space="preserve">
<style type="text/css">
	.st0{fill:#1254FF;}
	.st1{fill:#EEEEEE;}
	.st2{fill:#141617;}
</style>
<g>
	<path class="st0" d="M21.7,11.7c-0.2-0.2-4.1-4.5-9.2-4.8c-0.2,0-0.4,0-0.5,0s-0.4,0-0.5,0c-5.1,0.3-9,4.6-9.2,4.8L2,12l0.3,0.3
		c0.2,0.2,4.1,4.5,9.2,4.8c0.2,0,0.4,0,0.5,0c0.2,0,0.4,0,0.5,0c5.1-0.3,9-4.6,9.2-4.8L22,12L21.7,11.7z M16.3,12
		c0,2.4-1.9,4.3-4.3,4.3S7.7,14.4,7.7,12S9.6,7.7,12,7.7S16.3,9.6,16.3,12z M8.2,8.5C7.4,9.4,6.9,10.6,6.9,12c0,1.3,0.5,2.5,1.3,3.5
		c-2.5-1-4.3-2.8-5-3.5C3.8,11.3,5.7,9.6,8.2,8.5z M15.8,15.5c0.8-0.9,1.3-2.1,1.3-3.5c0-1.3-0.5-2.5-1.3-3.5c2.5,1,4.3,2.8,5,3.5
		C20.2,12.7,18.3,14.4,15.8,15.5z"/>
	<g>
		<path class="st0" d="M13.7,11.6c-0.8,0-1.5-0.7-1.5-1.5c0-0.3,0.1-0.6,0.2-0.8c-0.1,0-0.2,0-0.4,0c-1.5,0-2.8,1.2-2.8,2.8
			s1.2,2.8,2.8,2.8c1.5,0,2.8-1.2,2.8-2.8c0-0.3,0-0.5-0.1-0.8C14.4,11.4,14,11.6,13.7,11.6z"/>
	</g>
</g>
<g>
	<g>
		<path class="st1" d="M-33.3-19.5c0,0-4.5,5-10,5s-10-5-10-5s4.5-5,10-5S-33.3-19.5-33.3-19.5z"/>
	</g>
	<g>
		<circle class="st2" cx="-43.3" cy="-19.5" r="4.8"/>
	</g>
	<g>
		<path class="st1" d="M-41.8-19.9c-0.8,0-1.4-0.6-1.4-1.4c0-0.3,0.1-0.5,0.2-0.7c-0.1,0-0.2,0-0.3,0c-1.4,0-2.5,1.1-2.5,2.5
			s1.1,2.5,2.5,2.5c1.4,0,2.5-1.1,2.5-2.5c0-0.2,0-0.5-0.1-0.7C-41.1-20-41.5-19.9-41.8-19.9z"/>
	</g>
</g>
</svg>
