<?xml version="1.0" encoding="utf-8"?>
<!-- Generator: Adobe Illustrator 25.2.3, SVG Export Plug-In . SVG Version: 6.00 Build 0)  -->
<svg version="1.1" id="Layer_1" xmlns="http://www.w3.org/2000/svg" xmlns:xlink="http://www.w3.org/1999/xlink" x="0px" y="0px"
	 viewBox="0 0 31 31" style="enable-background:new 0 0 31 31;" xml:space="preserve">
<style type="text/css">
	.st0{fill:#1254FF;}
</style>
<g>
	<g>
		<path class="st0" d="M21.3,23H9.7c-1,0-1.7-0.8-1.7-1.7V9.7C8,8.8,8.8,8,9.7,8h11.5c1,0,1.7,0.8,1.7,1.7v11.5
			C23,22.2,22.2,23,21.3,23z M9.7,8.9c-0.4,0-0.8,0.4-0.8,0.8v11.5c0,0.4,0.4,0.8,0.8,0.8h11.5c0.4,0,0.8-0.4,0.8-0.8V9.7
			c0-0.4-0.4-0.8-0.8-0.8H9.7z"/>
	</g>
	<path class="st0" d="M19.9,20.7h-4.4c-0.4,0-0.8-0.4-0.8-0.8v-4.4c0-0.4,0.4-0.8,0.8-0.8h4.4c0.4,0,0.8,0.4,0.8,0.8v4.4
		C20.7,20.3,20.3,20.7,19.9,20.7z"/>
</g>
</svg>
