<?xml version="1.0" encoding="utf-8"?>
<!-- Generator: Adobe Illustrator 25.2.3, SVG Export Plug-In . SVG Version: 6.00 Build 0)  -->
<svg version="1.1" id="Layer_1" xmlns="http://www.w3.org/2000/svg" xmlns:xlink="http://www.w3.org/1999/xlink" x="0px" y="0px"
	 viewBox="0 0 31 31" style="enable-background:new 0 0 31 31;" xml:space="preserve">
<style type="text/css">
	.st0{fill:#333333;}
	.st1{fill:#EEEEEE;}
	.st2{fill:#FFFFFF;stroke:#FFFFFF;stroke-width:0.25;stroke-linecap:round;stroke-miterlimit:10;}
	.st3{display:none;}
	.st4{display:inline;}
</style>
<polygon class="st0" points="61,15.5 54.5,19.2 48,23 48,15.5 48,8 54.5,11.8 "/>
<g>
	<path class="st1" d="M95.7,20.6v2.2h-1.4v0.9h1.4h1.8h1.4v-0.9h-1.4v-2.2c2-0.4,3.5-2.2,3.5-4.3c0-0.1-0.1-0.3-0.4-0.3
		c-0.1,0-0.4,0.1-0.4,0.3c0,2-1.6,3.6-3.6,3.6c-0.8,0-1.5-0.3-2.2-0.7l-0.5,0.5C94.4,20.1,95.1,20.5,95.7,20.6z"/>
	<path class="st1" d="M92.9,16.3c0-0.1-0.1-0.3-0.4-0.3c-0.1,0-0.4,0.1-0.4,0.3c0,0.9,0.3,1.8,0.8,2.4l0.5-0.5
		C93.1,17.7,92.9,17,92.9,16.3z"/>
	<path class="st1" d="M98.6,16.2c0,1.2-0.9,2-2,2c-0.3,0-0.7-0.1-0.9-0.3l-0.4,0.5c0.4,0.3,0.9,0.4,1.4,0.4c1.5,0,2.7-1.2,2.7-2.8
		v-1.8L98.6,15V16.2z"/>
	<path class="st1" d="M94.6,16.2v-2.3v-2.3c0-1.2,0.9-2.2,2-2.2c1.1,0,2,0.9,2,2v1.8l0.7-0.7v-0.9c0-1.5-1.2-2.8-2.7-2.8
		s-2.7,1.2-2.7,2.8v2.3v2.3c0,0.5,0.1,0.9,0.4,1.4l0.5-0.5C94.7,16.7,94.6,16.5,94.6,16.2z"/>
	<g>
		<g>
			<path class="st1" d="M91.3,21.9c-0.1,0-0.1,0-0.3-0.1c-0.1-0.1-0.1-0.4,0-0.5l10.5-10.4c0.1-0.1,0.4-0.1,0.5,0
				c0.1,0.1,0.1,0.4,0,0.5L91.6,21.9C91.5,21.9,91.5,21.9,91.3,21.9z"/>
		</g>
	</g>
</g>
<g>
	<path class="st1" d="M62,18.3h0.2c1.4,0,2.6-1.2,2.6-2.6v-5c0-1.4-1.2-2.6-2.6-2.6H62c-1.4,0-2.6,1.2-2.6,2.6v5
		C59.4,17.2,60.5,18.3,62,18.3z"/>
	<path class="st1" d="M66.4,15.7c0-0.1-0.1-0.3-0.3-0.3s-0.4,0.1-0.4,0.3c0,2-1.6,3.6-3.6,3.6c-2,0-3.6-1.6-3.6-3.6
		c0-0.1-0.1-0.3-0.4-0.3c-0.1,0-0.4,0.1-0.4,0.3c0,2.2,1.5,3.8,3.5,4.3v2.2h-1.4v0.9h1.4h1.8h1.4v-0.9h-1.4V20
		C64.9,19.6,66.4,17.9,66.4,15.7z"/>
</g>
<g>
	<path class="st0" d="M-31.5,10.6c0-1.4-1.2-2.6-2.6-2.6h-0.2c-1.4,0-2.6,1.2-2.6,2.6v5c0,0.5,0.2,1,0.4,1.4l5-5V10.6z"/>
	<path class="st0" d="M-34.3,18.2h0.2c1.4,0,2.6-1.2,2.6-2.6v-2.2l-4.3,4.3C-35.3,18-34.8,18.2-34.3,18.2z"/>
	<path class="st0" d="M-35.1,19.9V22h-1.4V23h1.4h1.8h1.4V22h-1.4v-2.2c2-0.4,3.5-2.2,3.5-4.3c0-0.1-0.1-0.3-0.3-0.3
		s-0.4,0.1-0.4,0.3c0,2-1.6,3.6-3.6,3.6c-0.9,0-1.6-0.3-2.3-0.8l-0.5,0.5C-36.4,19.4-35.8,19.7-35.1,19.9z"/>
	<path class="st0" d="M-37.8,15.5c0-0.1-0.1-0.3-0.4-0.3c-0.1,0-0.4,0.1-0.4,0.3c0,1,0.4,2,0.9,2.7l0.6-0.6
		C-37.6,17.1-37.8,16.3-37.8,15.5z"/>
	<g>
		<line class="st0" x1="-39.5" y1="20.7" x2="-29" y2="10.3"/>
		<path class="st0" d="M-39.5,20.8C-39.5,20.8-39.5,20.8-39.5,20.8c-0.1-0.1-0.1-0.2-0.1-0.2l10.4-10.4c0,0,0.1,0,0.2,0
			c0,0,0,0.1,0,0.2L-39.5,20.8C-39.4,20.8-39.4,20.8-39.5,20.8z"/>
	</g>
</g>
<line class="st2" x1="108.3" y1="20.6" x2="118.8" y2="10.2"/>
<g>
	<g>
		<g>
			<g>
				<rect x="8.7" y="12.5" class="st0" width="2.3" height="6.1"/>
			</g>
			<path class="st0" d="M18.3,8.1c-3.5,4.2-6.2,4.3-6.2,4.3v6.1c0,0,2.7,0.2,6.2,4.3c0.2,0.3,0.5,0,0.5-0.4v-4v-6.1v-4
				C18.8,8.1,18.5,7.9,18.3,8.1z"/>
			<g>
				<path class="st0" d="M19.8,11.7v7.6c1.4-0.4,2.5-1.9,2.5-3.8S21.2,12.1,19.8,11.7z"/>
			</g>
		</g>
	</g>
</g>
<g class="st3">
	<g class="st4">
		<rect x="8.7" y="12.5" class="st0" width="2.3" height="6.1"/>
		<path class="st0" d="M18.8,8.5c0-0.4-0.3-0.6-0.5-0.4c-3.5,4.2-6.2,4.3-6.2,4.3v5.5l6.7-6.9V8.5z"/>
		<path class="st0" d="M18.3,22.9c0.2,0.3,0.5,0,0.5-0.4v-4v-5.3l-5.6,5.7C14.4,19.3,16.2,20.4,18.3,22.9z"/>
		<path class="st0" d="M20.1,11.8c-0.1,0-0.2-0.1-0.3-0.1v0.5v7.1c1.4-0.4,2.5-1.9,2.5-3.8C22.3,13.8,21.4,12.4,20.1,11.8z"/>
	</g>
	<g class="st4">
		<path class="st0" d="M8,23c-0.1,0-0.2,0-0.3-0.1c-0.1-0.1-0.1-0.4,0-0.5L22.2,7.6c0.1-0.1,0.4-0.1,0.5,0s0.2,0.4,0,0.5L8.3,22.8
			C8.2,22.9,8.1,23,8,23z"/>
	</g>
</g>
</svg>
